<svg preserveAspectRatio="none" overflow="visible" style="display: block;" width="41.1704" height="50.2486" viewBox="0 0 41.1704 50.2486" fill="none" xmlns="http://www.w3.org/2000/svg">
<g id="Tooth">
<path id="Subtract" d="M27.8566 0.0563096C30.7353 -0.158672 33.8973 0.217262 36.0138 1.61197C40.1086 4.31074 41.709 8.17098 41.0128 10.7165C39.8005 15.1491 38.5641 19.9245 37.631 24.1012C36.6968 28.2824 36.0695 31.8514 36.0695 33.8766C36.0694 36.4541 34.8622 40.6482 33.2159 44.1344C32.3922 45.8788 31.4547 47.4557 30.4952 48.569C30.0155 49.1256 29.5257 49.5702 29.0392 49.862C28.5525 50.1537 28.0606 50.2967 27.5802 50.234C27.0735 50.1677 26.6562 49.7327 26.3029 49.0944C25.9458 48.4493 25.6334 47.5602 25.3507 46.5172C24.785 44.43 24.3297 41.6933 23.879 38.9801C23.4276 36.2624 22.9805 33.5681 22.4318 31.5534C22.1572 30.5453 21.8595 29.7158 21.5275 29.1413C21.1915 28.5602 20.8438 28.279 20.4835 28.279C20.1665 28.2792 19.9001 28.4215 19.672 28.6921C19.4409 28.9664 19.252 29.3699 19.1017 29.8766C18.8011 30.8899 18.6645 32.2784 18.6163 33.7643C18.5683 35.2479 18.6081 36.8195 18.6573 38.196C18.7064 39.5689 18.765 40.7545 18.7521 41.4547C18.7262 42.8532 18.5162 44.9458 17.9689 46.6774C17.6954 47.5425 17.3352 48.3276 16.8634 48.8903C16.3894 49.4555 15.7957 49.8043 15.0665 49.7712C13.6834 49.7082 12.4817 49.0971 11.5431 48.363C10.6048 47.629 9.92063 46.7658 9.57043 46.1823C9.55365 46.1543 9.5422 46.1274 9.53332 46.0973C9.47932 45.9141 9.37624 45.6631 9.23254 45.3385C9.16105 45.1771 9.07982 44.9982 8.99133 44.8024C8.90302 44.607 8.80698 44.3943 8.70519 44.1647C8.29715 43.2442 7.79469 42.0476 7.30676 40.5661C6.33076 37.6024 5.41223 33.4964 5.41223 28.1549C5.4121 26.4088 4.73613 23.8364 3.84777 21.2838C2.96084 18.7355 1.86798 16.2234 1.04602 14.6051L1.04016 14.5934V14.5924C0.546602 13.3191 0.00924871 11.2558 0.000116683 9.19596C-0.00896494 7.13807 0.510353 5.05349 2.1632 3.7819C6.2052 0.672694 9.64189 -0.114335 13.0841 0.511388C13.9528 0.669333 15.2885 1.22783 16.878 1.96549C18.4658 2.70233 20.3464 3.63757 22.2765 4.54166C24.2144 5.4494 26.2236 6.33595 28.1066 6.99576C29.9915 7.65624 31.7408 8.08546 33.1622 8.08561C33.5182 8.08561 33.7627 8.06648 33.9132 8.03385C33.9732 8.02081 34.0108 8.00524 34.0333 7.99381C34.0293 7.98897 34.0242 7.98276 34.0177 7.97623C33.9863 7.94499 33.9351 7.90675 33.8634 7.86197C33.7204 7.77266 33.5099 7.668 33.2404 7.55143C32.1597 7.08415 30.2111 6.44789 28.1691 5.77311C26.1321 5.10001 24.0038 4.38848 22.5753 3.77506C21.866 3.47045 21.3101 3.18304 21.0294 2.9274C20.8949 2.8048 20.7843 2.65313 20.8136 2.48697C20.8435 2.31879 21.0026 2.21239 21.1974 2.14029C21.2253 2.12994 21.2507 2.11454 21.2628 2.10318C21.8041 1.58681 22.7392 1.13027 23.8859 0.776036C25.0362 0.420719 26.4146 0.164029 27.8566 0.0563096ZM31.0499 15.3249C30.9242 15.2224 30.7596 15.2907 30.6534 15.3981C29.6455 16.4185 27.7732 18.3702 25.0919 20.694C23.4958 22.0773 21.2774 22.6043 18.8458 22.5983C16.4155 22.5922 13.7864 22.0537 11.3888 21.3219C11.1953 21.2633 11.0212 21.3457 10.9532 21.4948C10.9203 21.5671 10.9144 21.652 10.9445 21.7321C10.975 21.8129 11.039 21.8802 11.1271 21.9255C12.23 22.491 13.6155 23.0879 14.9405 23.3825C16.3263 23.6904 17.6953 24.0426 19.1993 24.0622C20.7083 24.0817 22.3517 23.7666 24.3019 22.7526C25.6599 22.0464 27.001 20.8294 28.1739 19.5241C29.3481 18.2173 30.361 16.8139 31.0616 15.7272C31.1433 15.6002 31.1741 15.4264 31.0499 15.3249Z" fill="#2C9CA6"/>
</g>
</svg>
